<!-- <?xml version="1.0" encoding="UTF-8" standalone="no"?><!DOCTYPE svg PUBLIC "-//W3C//DTD SVG 1.1//EN" "http://www.w3.org/Graphics/SVG/1.1/DTD/svg11.dtd"> -->
<svg width="100%" height="100%" viewBox="0 0 360 360" version="1.1" xmlns="http://www.w3.org/2000/svg" xmlns:xlink="http://www.w3.org/1999/xlink" xml:space="preserve" xmlns:serif="http://www.serif.com/" style="fill-rule:evenodd;clip-rule:evenodd;stroke-linecap:round;stroke-linejoin:round;stroke-miterlimit:1.5;"><circle cx="180" cy="185" r="170" style="fill:#b8bf40;"/><path d="M77,200l206,-2l-10.955,44l-2.045,22l-2.76,15l-4.026,31l-166.428,0l-2.338,-18l-6.448,-30l-3,-26l-8,-36Z" style="fill:#e57676;stroke:#8b1818;stroke-width:13px;"/><path d="M100.452,220.758l-6.21,0.718l0.614,14.936l4.153,24.649l2.515,30.631l2.266,16.188l6.21,-0.718c-0.7,-7.253 -0.264,-13.548 -1.17,-21.065c-1.024,-8.49 -3.44,-18.518 -5.118,-32.838c-1.028,-8.771 -1.7,-20.054 -3.26,-32.501Z" style="fill:#e57676;"/><path d="M100.452,220.758l-6.21,0.718l0.614,14.936l4.153,24.649l2.515,30.631l2.266,16.188l6.21,-0.718c-0.7,-7.253 -0.264,-13.548 -1.17,-21.065c-1.024,-8.49 -3.44,-18.518 -5.118,-32.838c-1.028,-8.771 -1.7,-20.054 -3.26,-32.501Z" style="fill:#8b1818;"/><path d="M260.929,313.478l-0,-11.648l-27.769,-2.061l-46.502,2.411l-57.217,-1.901l-30.441,0.729l-0,11.648c13.572,0.256 25.126,2.412 39.231,2.342c15.928,-0.078 35.001,-2.403 61.859,-2.443c16.449,-0.025 37.473,1.146 60.839,0.923Z" style="fill:#e57676;"/><path d="M260.929,313.478l-0,-11.648l-27.769,-2.061l-46.502,2.411l-57.217,-1.901l-30.441,0.729l-0,11.648c13.572,0.256 25.126,2.412 39.231,2.342c15.928,-0.078 35.001,-2.403 61.859,-2.443c16.449,-0.025 37.473,1.146 60.839,0.923Z" style="fill:#8b1818;"/><path d="M247.223,217.717l-8.897,-0.844l-2.853,15.624l-0.301,26.589l-4.087,32.364l-0.846,17.343l8.897,0.844c0.821,-7.69 2.999,-14.097 3.596,-22.114c0.674,-9.054 -0.223,-20.056 0.983,-35.315c0.739,-9.345 2.602,-21.202 3.508,-34.491Z" style="fill:#e57676;"/><path d="M247.223,217.717l-8.897,-0.844l-2.853,15.624l-0.301,26.589l-4.087,32.364l-0.846,17.343l8.897,0.844c0.821,-7.69 2.999,-14.097 3.596,-22.114c0.674,-9.054 -0.223,-20.056 0.983,-35.315c0.739,-9.345 2.602,-21.202 3.508,-34.491Z" style="fill:#8b1818;"/><path d="M160.744,227.402l-8.912,0.627l-0.516,14.264l3.619,23.573l0.729,29.266l1.719,15.476l8.911,-0.627c-0.322,-6.931 0.886,-12.936 0.295,-20.122c-0.668,-8.114 -3.174,-17.71 -4.23,-31.398c-0.647,-8.383 -0.553,-19.161 -1.615,-31.059Z" style="fill:#e57676;"/><path d="M160.744,227.402l-8.912,0.627l-0.516,14.264l3.619,23.573l0.729,29.266l1.719,15.476l8.911,-0.627c-0.322,-6.931 0.886,-12.936 0.295,-20.122c-0.668,-8.114 -3.174,-17.71 -4.23,-31.398c-0.647,-8.383 -0.553,-19.161 -1.615,-31.059Z" style="fill:#8b1818;"/><path d="M213.419,220.527l-7.144,-0.527l-2.254,15.18l-0.178,25.684l-3.205,31.384l-0.638,16.775l7.145,0.527c0.641,-7.453 2.374,-13.71 2.835,-21.471c0.519,-8.764 -0.227,-19.359 0.705,-34.133c0.571,-9.048 2.038,-20.558 2.734,-33.419Z" style="fill:#e57676;"/><path d="M213.419,220.527l-7.144,-0.527l-2.254,15.18l-0.178,25.684l-3.205,31.384l-0.638,16.775l7.145,0.527c0.641,-7.453 2.374,-13.71 2.835,-21.471c0.519,-8.764 -0.227,-19.359 0.705,-34.133c0.571,-9.048 2.038,-20.558 2.734,-33.419Z" style="fill:#8b1818;"/><path d="M245,309.134l7.113,0.866l2.94,-15.056l1.345,-25.649l4.626,-31.197l1.4,-16.726l-7.113,-0.866c-0.979,7.414 -2.995,13.582 -3.807,21.312c-0.917,8.73 -0.653,19.349 -2.255,34.063c-0.981,9.011 -2.97,20.439 -4.249,33.253Z" style="fill:#e57676;"/><path d="M245,309.134l7.113,0.866l2.94,-15.056l1.345,-25.649l4.626,-31.197l1.4,-16.726l-7.113,-0.866c-0.979,7.414 -2.995,13.582 -3.807,21.312c-0.917,8.73 -0.653,19.349 -2.255,34.063c-0.981,9.011 -2.97,20.439 -4.249,33.253Z" style="fill:#8b1818;"/><path d="M216.246,307.846l7.152,0.43l2.016,-15.207l-0.224,-25.683l2.714,-31.422l0.375,-16.78l-7.153,-0.431c-0.524,7.461 -2.16,13.74 -2.498,21.506c-0.383,8.77 0.53,19.353 -0.171,34.137c-0.43,9.054 -1.717,20.581 -2.211,33.45Z" style="fill:#e57676;"/><path d="M216.246,307.846l7.152,0.43l2.016,-15.207l-0.224,-25.683l2.714,-31.422l0.375,-16.78l-7.153,-0.431c-0.524,7.461 -2.16,13.74 -2.498,21.506c-0.383,8.77 0.53,19.353 -0.171,34.137c-0.43,9.054 -1.717,20.581 -2.211,33.45Z" style="fill:#8b1818;"/><path d="M121.264,228.132l-6.658,0.739l0.401,14.247l4.022,23.487l2.166,29.208l2.147,15.429l6.658,-0.739c-0.625,-6.916 -0.05,-12.926 -0.891,-20.092c-0.951,-8.093 -3.364,-17.641 -4.914,-31.292c-0.949,-8.361 -1.475,-19.123 -2.931,-30.987Z" style="fill:#e57676;"/><path d="M121.264,228.132l-6.658,0.739l0.401,14.247l4.022,23.487l2.166,29.208l2.147,15.429l6.658,-0.739c-0.625,-6.916 -0.05,-12.926 -0.891,-20.092c-0.951,-8.093 -3.364,-17.641 -4.914,-31.292c-0.949,-8.361 -1.475,-19.123 -2.931,-30.987Z" style="fill:#8b1818;"/><path d="M181.214,308.993l6.577,-0.316l0.347,-16.117l-2.73,-26.829l-0.609,-33.145l-1.307,-17.586l-6.577,0.316c0.254,7.856 -0.623,14.597 -0.169,22.753c0.513,9.211 2.387,20.179 3.2,35.712c0.498,9.513 0.455,21.703 1.268,35.212Z" style="fill:#e57676;"/><path d="M181.214,308.993l6.577,-0.316l0.347,-16.117l-2.73,-26.829l-0.609,-33.145l-1.307,-17.586l-6.577,0.316c0.254,7.856 -0.623,14.597 -0.169,22.753c0.513,9.211 2.387,20.179 3.2,35.712c0.498,9.513 0.455,21.703 1.268,35.212Z" style="fill:#8b1818;"/><path d="M136.958,309.971l6.584,-0.028l1.029,-13.489l-1.591,-22.572l0.793,-27.786l-0.561,-14.778l-6.584,0.029c-0.078,6.59 -1.24,12.205 -1.132,19.053c0.123,7.734 1.531,16.989 1.685,30.03c0.095,7.986 -0.464,18.197 -0.223,29.541Z" style="fill:#e57676;"/><path d="M136.958,309.971l6.584,-0.028l1.029,-13.489l-1.591,-22.572l0.793,-27.786l-0.561,-14.778l-6.584,0.029c-0.078,6.59 -1.24,12.205 -1.132,19.053c0.123,7.734 1.531,16.989 1.685,30.03c0.095,7.986 -0.464,18.197 -0.223,29.541Z" style="fill:#8b1818;"/><g><path d="M87.128,216.49l-14.66,0c-17.814,-10.576 -29.792,-30.209 -29.792,-52.661c0,-26.566 10.955,-41.489 34.324,-49.829c3.931,-12.183 21.037,-28.688 34.338,-28.688c2.592,0 1.162,-6.812 10.662,-9.312c16,-22 31.782,-26 58,-26c26.218,0 49.1,14.627 61.156,36.276c9.764,-9.77 45.305,3.465 36.844,27.724c23.369,8.339 39.324,23.262 39.324,49.829c0,22.452 -11.978,42.085 -29.792,52.661c-8.635,7.551 -30.171,7.12 -37.532,3.51c-3.338,-1.637 -13.349,-0.34 -16.389,0.233c-13.623,2.565 -15.728,5.837 -29.522,3.3c-6.062,-1.115 -16.708,-4.659 -24.267,-7.043c-3.207,2.087 -7.023,3.628 -10.366,3.651c-1.291,0.009 -0.562,2.459 -5.287,3.392c-7.914,7.983 -15.763,9.478 -28.82,9.566c-13.056,0.089 -24.487,-5.105 -30.543,-12.866c-3.532,2.594 -13.935,0.817 -17.678,-3.743Z" style="fill:#493434;stroke:#a38686;stroke-width:13px;"/></g><ellipse cx="130" cy="175" rx="40" ry="38.214" style="fill:#a38686;stroke:#493434;stroke-width:7.95px;"/><path d="M223.825,152.927c11.31,-13.403 29.171,-16.962 39.859,-7.942c10.689,9.02 10.183,27.224 -1.127,40.627c-11.311,13.403 -29.171,16.962 -39.86,7.943c-10.688,-9.02 -10.183,-27.225 1.128,-40.628Z" style="fill:#a38686;stroke:#493434;stroke-width:7.95px;"/><path d="M250.933,95.566c6.002,-2.047 12.697,1.632 14.942,8.211c2.244,6.579 -0.807,13.583 -6.808,15.63c-6.002,2.048 -12.697,-1.631 -14.942,-8.21c-2.244,-6.58 0.807,-13.583 6.808,-15.631Z" style="fill:#a38686;stroke:#493434;stroke-width:7.95px;"/><path d="M131.054,96.25c-2.177,-2.07 -2.548,-5.22 -0.827,-7.031c1.721,-1.811 4.887,-1.601 7.064,0.469c2.178,2.069 2.549,5.22 0.828,7.031c-1.722,1.811 -4.887,1.601 -7.065,-0.469Z" style="fill:#a38686;stroke:#a38686;stroke-width:7.95px;"/></svg>